<?xml version="1.0" standalone="no"?>
<!DOCTYPE svg PUBLIC "-//W3C//DTD SVG 20010904//EN"
 "http://www.w3.org/TR/2001/REC-SVG-20010904/DTD/svg10.dtd">
<svg version="1.0" xmlns="http://www.w3.org/2000/svg"
 width="98.000000pt" height="98.000000pt" viewBox="0 0 98.000000 98.000000"
 preserveAspectRatio="xMidYMid meet">
<metadata>
Created by potrace 1.11, written by Peter Selinger 2001-2013
</metadata>
<g transform="translate(0.000000,98.000000) scale(0.100000,-0.100000)"
fill="#000000" stroke="none">
<path d="M441 944 c-6 -14 -9 -30 -6 -35 4 -5 -8 -9 -24 -9 -21 0 -31 -5 -31
-15 0 -16 -27 -18 -192 -15 l-77 1 -3 -138 c-3 -123 -5 -138 -20 -135 -12 2
-18 -6 -20 -25 -2 -16 -8 -27 -16 -25 -6 1 -12 -2 -12 -8 0 -5 -9 -10 -20 -10
-17 0 -20 -7 -20 -44 0 -42 1 -44 34 -50 28 -5 35 -12 38 -34 2 -19 8 -26 20
-24 16 2 18 -11 20 -134 l3 -137 133 0 c122 0 132 -1 132 -18 0 -13 7 -19 21
-19 25 0 48 -26 49 -53 0 -16 7 -18 43 -15 32 3 42 8 41 21 -1 9 2 17 7 17 5
0 9 7 9 15 0 9 9 15 24 15 15 0 26 7 29 19 4 17 15 19 118 19 63 0 122 1 132
1 15 1 17 14 17 137 0 131 1 136 20 131 17 -4 20 0 20 23 0 25 5 30 35 36 34
6 35 8 35 50 0 37 -3 44 -20 44 -11 0 -20 5 -20 10 0 6 -6 9 -12 8 -8 -2 -14
9 -16 25 -2 19 -8 27 -20 25 -15 -3 -17 12 -20 135 l-3 138 -62 -1 c-159 -4
-207 0 -207 15 0 9 -9 15 -24 15 -17 0 -26 7 -32 28 -4 15 -7 30 -6 35 1 4
-18 7 -41 7 -37 0 -46 -4 -56 -26z m151 -155 c11 -6 18 -5 20 3 9 25 27 -4 26
-42 l0 -40 -65 0 c-42 0 -62 -4 -58 -10 4 -6 -1 -23 -10 -37 l-17 -26 -14 31
c-9 22 -20 32 -36 33 -28 1 -148 1 -165 0 -10 -1 -13 -53 -13 -226 l0 -225 35
0 c40 0 37 -25 36 228 0 83 3 153 7 153 4 1 33 2 65 3 l57 1 0 -135 c0 -119
-3 -138 -20 -160 -28 -36 -25 -48 10 -45 17 1 32 4 34 6 1 2 12 17 24 33 20
26 22 40 22 165 l0 136 60 0 c47 0 60 -3 61 -15 0 -8 2 -25 3 -37 2 -17 -3
-23 -16 -23 -13 0 -18 8 -19 28 -2 27 -2 27 -6 2 -3 -14 -10 -28 -17 -32 -8
-6 -7 -8 3 -8 9 0 12 -9 9 -30 -4 -24 -1 -30 14 -30 14 0 19 -6 18 -22 -1 -13
-2 -34 -1 -48 1 -20 3 -22 11 -10 6 9 10 10 10 3 0 -7 -8 -17 -17 -22 -12 -7
-14 -10 -4 -11 10 0 10 -5 -3 -25 -9 -14 -13 -25 -9 -24 23 4 34 -3 31 -18 -2
-10 -7 -21 -11 -24 -11 -8 -15 -77 -5 -92 4 -7 8 8 8 33 0 28 3 40 9 32 5 -8
21 -12 37 -10 l28 3 -1 148 -1 147 30 0 c22 0 29 -4 25 -15 -4 -8 -1 -17 5
-21 6 -4 8 -3 5 2 -3 6 -2 16 4 24 10 17 11 12 11 -55 0 -64 -2 -73 -12 -50
-8 18 -9 18 -9 2 -1 -10 -5 -16 -10 -12 -5 3 -13 0 -17 -6 -4 -7 -3 -9 2 -6
25 15 37 -13 39 -92 1 -44 -2 -78 -6 -75 -5 3 -9 -14 -9 -38 -1 -38 -2 -41
-14 -25 -10 13 -15 14 -19 5 -3 -9 -24 -13 -64 -13 -70 1 -83 8 -76 38 3 12 3
19 0 16 -4 -3 -8 -16 -10 -30 l-4 -24 -204 0 -204 0 -3 311 -2 311 197 1 c109
0 206 -4 215 -9z m98 -23 c0 -25 5 -35 20 -39 13 -3 20 0 20 9 0 8 -6 11 -15
8 -11 -5 -15 1 -15 25 0 24 4 31 20 31 10 0 24 -8 30 -17 11 -17 11 -17 6 0
-3 11 0 17 9 17 10 0 15 -12 16 -37 l2 -38 7 35 7 35 3 -40 c3 -60 -1 -100
-11 -103 -5 -2 -9 -11 -9 -20 0 -15 2 -15 10 -2 8 13 10 12 10 -2 0 -11 -8
-18 -20 -18 -11 0 -20 6 -20 13 0 8 -3 7 -10 -3 -16 -25 -33 4 -28 49 l4 41
-38 0 -38 0 0 45 c0 38 3 45 20 45 16 0 20 -7 20 -34z m90 -180 c0 -6 5 -4 10
4 8 12 10 11 10 -6 0 -16 -7 -21 -40 -22 -34 -2 -40 0 -40 17 0 15 7 19 30 19
17 -1 30 -6 30 -12z m-127 -55 c5 -22 0 -31 -20 -31 -7 0 -13 11 -13 25 0 30
25 34 33 6z m4 -93 c-3 -8 -6 -5 -6 6 -1 11 2 17 5 13 3 -3 4 -12 1 -19z m146
-238 c-7 -28 -13 -25 -13 6 0 14 4 23 9 20 5 -3 7 -15 4 -26z"/>
<path d="M595 760 c3 -5 8 -10 11 -10 2 0 4 5 4 10 0 6 -5 10 -11 10 -5 0 -7
-4 -4 -10z"/>
<path d="M775 491 c-3 -5 -2 -12 3 -15 5 -3 9 1 9 9 0 17 -3 19 -12 6z"/>
<path d="M740 348 c0 -7 5 -20 10 -28 8 -11 9 -9 8 13 -2 26 -18 40 -18 15z"/>
<path d="M546 342 c-3 -5 1 -9 9 -9 8 0 12 4 9 9 -3 4 -7 8 -9 8 -2 0 -6 -4
-9 -8z"/>
<path d="M752 250 c0 -14 2 -19 5 -12 2 6 2 18 0 25 -3 6 -5 1 -5 -13z"/>
<path d="M751 744 c0 -11 3 -14 6 -6 3 7 2 16 -1 19 -3 4 -6 -2 -5 -13z"/>
<path d="M747 705 c-4 -8 -3 -16 1 -19 4 -3 9 4 9 15 2 23 -3 25 -10 4z"/>
</g>
</svg>
